<?xml version="1.0" encoding="UTF-8"?>
<svg id="Layer_2" data-name="Layer 2" xmlns="http://www.w3.org/2000/svg" viewBox="0 0 355.11 210.42">
  <defs>
    <style>
      .cls-1, .cls-2 {
        fill: #10182a;
      }

      .cls-3 {
        letter-spacing: .96em;
      }

      .cls-4 {
        letter-spacing: 1em;
      }

      .cls-2 {
        font-family: Montserrat-Bold, Montserrat;
        font-size: 14px;
        font-weight: 700;
      }

      .cls-5 {
        letter-spacing: .97em;
      }

      .cls-6 {
        letter-spacing: .99em;
      }
    </style>
  </defs>
  <g id="Layer_3" data-name="Layer 3">
    <g>
      <g>
        <g>
          <path class="cls-1" d="M198.99,58.85c-2.53,0-4.58,2.05-4.58,4.58s2.05,4.58,4.58,4.58,4.58-2.05,4.58-4.58-2.05-4.58-4.58-4.58Z"/>
          <path class="cls-1" d="M304.41,15.91c-10.85-10.85-20.4-15.91-30.07-15.91h-33.1v35h31.63c.96.55,3.18,2.05,6.79,5.65,24.39,24.41,26.54,63.69,5.01,91.38-6.76,8.7-10.68,11.81-12.18,12.81h-56.39V45.28h-35v134.56h93.25c12.09,0,23.8-8.12,37.95-26.32,32.34-41.59,28.96-100.75-7.88-137.61ZM204.89,69.33l-5.9,5.9-5.9-5.9c-3.26-3.26-3.26-8.54,0-11.8,3.26-3.26,8.54-3.26,11.8,0h0c3.26,3.26,3.26,8.54,0,11.8Z"/>
        </g>
        <g>
          <circle class="cls-1" cx="40.96" cy="161.15" r="3.54"/>
          <path class="cls-1" d="M74.11,0C44.63,0,20.64,23.99,20.64,53.47s23.99,53.47,53.47,53.47h41.59c10.45,0,18.95,8.5,18.95,18.95s-8.5,18.95-18.95,18.95H24.58v35h91.12c29.75,0,53.95-24.2,53.95-53.95s-24.2-53.95-53.95-53.95h-41.59c-10.18,0-18.47-8.28-18.47-18.47s8.28-18.47,18.47-18.47h184.08L271.36,0H74.11ZM45.51,165.7l-4.55,4.55-4.55-4.55c-2.51-2.51-2.51-6.59,0-9.1,2.51-2.51,6.59-2.51,9.1,0h0c2.51,2.51,2.51,6.59,0,9.1Z"/>
        </g>
      </g>
      <text class="cls-2" transform="translate(0 206.7)"><tspan class="cls-4" x="0" y="0">SALES DIS</tspan><tspan class="cls-3" x="201.49" y="0">P</tspan><tspan class="cls-5" x="225.1" y="0">A</tspan><tspan class="cls-6" x="249.34" y="0">T</tspan><tspan class="cls-4" x="271.85" y="0">CHER</tspan></text>
    </g>
  </g>
</svg>